<svg width="210" height="51" viewBox="0 0 210 51" fill="none" xmlns="http://www.w3.org/2000/svg">
<path d="M63.3 40V13H68.2667V23.8H80.5V13H85.4333V40H80.5V28.2H68.2667V40H63.3ZM97.6833 40.4C95.8167 40.4 94.15 39.9778 92.6833 39.1333C91.2167 38.2667 90.05 37.0556 89.1833 35.5C88.3389 33.9444 87.9167 32.1111 87.9167 30C87.9167 27.8667 88.3389 26.0222 89.1833 24.4667C90.05 22.9111 91.2167 21.7111 92.6833 20.8667C94.15 20.0222 95.8167 19.6 97.6833 19.6C99.5944 19.6 101.283 20.0222 102.75 20.8667C104.217 21.7111 105.361 22.9111 106.183 24.4667C107.028 26.0222 107.45 27.8667 107.45 30C107.45 32.1111 107.028 33.9556 106.183 35.5333C105.339 37.0889 104.183 38.2889 102.717 39.1333C101.25 39.9778 99.5722 40.4 97.6833 40.4ZM97.6833 36.0667C99.1722 36.0667 100.361 35.5222 101.25 34.4333C102.161 33.3222 102.617 31.8444 102.617 30C102.617 28.1333 102.161 26.6556 101.25 25.5667C100.361 24.4778 99.1722 23.9333 97.6833 23.9333C96.2389 23.9333 95.05 24.4778 94.1167 25.5667C93.2056 26.6556 92.75 28.1333 92.75 30C92.75 31.8444 93.2056 33.3222 94.1167 34.4333C95.05 35.5222 96.2389 36.0667 97.6833 36.0667ZM112.376 40L106.542 20H111.442L115.109 33.8667H115.242L119.609 20H124.376L128.709 33.8667H128.842L132.542 20H137.376L131.542 40H126.376L122.042 26.5H121.909L117.542 40H112.376ZM146.143 40.4C144.276 40.4 142.609 39.9778 141.143 39.1333C139.698 38.2667 138.554 37.0556 137.709 35.5C136.887 33.9222 136.476 32.0667 136.476 29.9333C136.476 27.8222 136.876 26 137.676 24.4667C138.498 22.9111 139.62 21.7111 141.043 20.8667C142.465 20.0222 144.098 19.6 145.943 19.6C147.676 19.6 149.22 19.9889 150.576 20.7667C151.932 21.5222 153.009 22.6333 153.809 24.1C154.609 25.5667 155.009 27.3333 155.009 29.4V31.1667H141.209C141.387 32.8111 141.909 34.1 142.776 35.0333C143.665 35.9444 144.776 36.4 146.109 36.4C147.132 36.4 147.976 36.1556 148.643 35.6667C149.332 35.1778 149.798 34.5111 150.043 33.6667H154.976C154.709 35.0667 154.154 36.2778 153.309 37.3C152.487 38.3 151.454 39.0667 150.209 39.6C148.987 40.1333 147.632 40.4 146.143 40.4ZM141.343 27.8H150.276C150.12 26.4222 149.643 25.3778 148.843 24.6667C148.065 23.9333 147.098 23.5667 145.943 23.5667C144.787 23.5667 143.798 23.9333 142.976 24.6667C142.176 25.4 141.632 26.4444 141.343 27.8ZM157.189 40V20H161.822V23.5333H161.956C162.4 22.4 163.089 21.5 164.022 20.8333C164.956 20.1444 166.078 19.8 167.389 19.8H168.989V24.0667H167.156C165.422 24.0667 164.134 24.5889 163.289 25.6333C162.445 26.6778 162.022 28.0667 162.022 29.8V40H157.189ZM171.465 40V23.8667H168.131V20H171.498V16.1C171.498 14.7 171.853 13.6667 172.565 13C173.276 12.3333 174.287 12 175.598 12H180.798V15.8667H176.231V20H180.398V23.8667H176.298V40H171.465ZM188.408 40.3667C186.963 40.3667 185.697 40.0333 184.608 39.3667C183.519 38.6778 182.663 37.7222 182.041 36.5C181.441 35.2778 181.141 33.8667 181.141 32.2667V20H185.974V31.2667C185.974 32.7333 186.33 33.8889 187.041 34.7333C187.752 35.5556 188.763 35.9667 190.074 35.9667C191.43 35.9667 192.508 35.5333 193.308 34.6667C194.108 33.7778 194.508 32.6 194.508 31.1333V20H199.341V40H194.641V36.7667H194.508C193.952 37.9444 193.152 38.8444 192.108 39.4667C191.063 40.0667 189.83 40.3667 188.408 40.3667ZM202.34 40V12H207.173V40H202.34Z" fill="#141414"/>
<mask id="mask0_3376_1814" style="mask-type:luminance" maskUnits="userSpaceOnUse" x="0" y="6" width="50" height="40">
<path d="M20.4167 36.9375H29.5834" stroke="white" stroke-width="3.33333" stroke-linecap="round"/>
<path d="M2.39905 29.5312L10.373 10.9614L15.572 8.29163M47.7136 29.7843L39.6355 10.9604L34.4365 8.29163" stroke="white" stroke-width="3.33333" stroke-linecap="round" stroke-linejoin="round"/>
<path fill-rule="evenodd" clip-rule="evenodd" d="M3.54173 28.9166H19.4969C19.6829 28.9166 19.8669 28.9551 20.0372 29.0296C20.2076 29.1042 20.3607 29.2132 20.4869 29.3497C20.6131 29.4863 20.7097 29.6476 20.7706 29.8233C20.8315 29.999 20.8553 30.1854 20.8407 30.3708L19.8751 42.5708C19.8483 42.9088 19.6952 43.2244 19.4461 43.4545C19.1971 43.6847 18.8704 43.8125 18.5313 43.8125H4.50839C4.16929 43.8125 3.84265 43.6847 3.59359 43.4545C3.34454 43.2244 3.19137 42.9088 3.16464 42.5708L2.19902 30.3708C2.18437 30.1855 2.2082 29.9992 2.26902 29.8235C2.32983 29.6479 2.42632 29.4867 2.55242 29.3501C2.67852 29.2136 2.8315 29.1046 3.00175 29.03C3.17201 28.9553 3.35585 28.9168 3.54173 28.9166ZM30.5042 28.9166H46.4584C46.6444 28.9166 46.8283 28.9551 46.9987 29.0296C47.1691 29.1042 47.3222 29.2132 47.4484 29.3497C47.5746 29.4863 47.6712 29.6476 47.7321 29.8233C47.7929 29.999 47.8168 30.1854 47.8021 30.3708L46.8355 42.5708C46.8087 42.9088 46.6556 43.2244 46.4065 43.4545C46.1575 43.6847 45.8308 43.8125 45.4917 43.8125H31.4709C31.1318 43.8125 30.8051 43.6847 30.5561 43.4545C30.307 43.2244 30.1539 42.9088 30.1271 42.5708L29.1605 30.3708C29.1458 30.1854 29.1697 29.999 29.2306 29.8233C29.2914 29.6476 29.388 29.4863 29.5142 29.3497C29.6404 29.2132 29.7936 29.1042 29.9639 29.0296C30.1343 28.9551 30.3183 28.9166 30.5042 28.9166Z" fill="#555555" stroke="white" stroke-width="3.33333"/>
</mask>
<g mask="url(#mask0_3376_1814)">
<path d="M0 1H50V51H0V1Z" fill="#141414"/>
</g>
</svg>
