<svg width="28" height="28" viewBox="0 0 28 28" fill="none" xmlns="http://www.w3.org/2000/svg">
<path d="M23.3333 23.3333H21V25.6667H23.3333V23.3333ZM23.3333 23.3333H25.6667V7H23.3333V23.3333ZM2.33333 25.6667H4.66667V23.3333H2.33333V25.6667ZM0 23.3333H2.33333V7H0V23.3333ZM4.66667 28H21V25.6667H4.66667V28ZM11.6667 23.3333H16.3333V21H11.6667V23.3333ZM7 16.3333H9.33333V11.6667H7V16.3333ZM2.33333 7H4.66667V4.66667H2.33333V7ZM16.3333 21H18.6667V18.6667H16.3333V21ZM14 14H16.3333V11.6667H14V14ZM16.3333 16.3333H18.6667V14H16.3333V16.3333ZM16.3333 11.6667H18.6667V9.33333H16.3333V11.6667ZM4.66667 4.66667H21V2.33334H4.66667V4.66667ZM21 7H23.3333V4.66667H21V7Z" fill="#2A3451" fill-opacity="0.23"/>
</svg>
